<svg width="110" height="24" viewBox="0 0 110 24" fill="none" xmlns="http://www.w3.org/2000/svg">
<path d="M2.86406 10.5C2.10937 10.5 1.5 9.89062 1.5 9.13594C1.5 9.04687 1.50937 8.9625 1.52812 8.87344C1.77656 7.88906 3.69375 1.5 12 1.5C20.3062 1.5 22.2234 7.88906 22.4719 8.87344C22.4953 8.9625 22.5 9.04687 22.5 9.13594C22.5 9.89062 21.8906 10.5 21.1359 10.5H2.86406ZM6.75 6C6.75 5.80109 6.67098 5.61032 6.53033 5.46967C6.38968 5.32902 6.19891 5.25 6 5.25C5.80109 5.25 5.61032 5.32902 5.46967 5.46967C5.32902 5.61032 5.25 5.80109 5.25 6C5.25 6.19891 5.32902 6.38968 5.46967 6.53033C5.61032 6.67098 5.80109 6.75 6 6.75C6.19891 6.75 6.38968 6.67098 6.53033 6.53033C6.67098 6.38968 6.75 6.19891 6.75 6ZM18 6.75C18.1989 6.75 18.3897 6.67098 18.5303 6.53033C18.671 6.38968 18.75 6.19891 18.75 6C18.75 5.80109 18.671 5.61032 18.5303 5.46967C18.3897 5.32902 18.1989 5.25 18 5.25C17.8011 5.25 17.6103 5.32902 17.4697 5.46967C17.329 5.61032 17.25 5.80109 17.25 6C17.25 6.19891 17.329 6.38968 17.4697 6.53033C17.6103 6.67098 17.8011 6.75 18 6.75ZM12.75 4.5C12.75 4.30109 12.671 4.11032 12.5303 3.96967C12.3897 3.82902 12.1989 3.75 12 3.75C11.8011 3.75 11.6103 3.82902 11.4697 3.96967C11.329 4.11032 11.25 4.30109 11.25 4.5C11.25 4.69891 11.329 4.88968 11.4697 5.03033C11.6103 5.17098 11.8011 5.25 12 5.25C12.1989 5.25 12.3897 5.17098 12.5303 5.03033C12.671 4.88968 12.75 4.69891 12.75 4.5ZM0.75 14.25C0.75 13.0078 1.75781 12 3 12H21C22.2422 12 23.25 13.0078 23.25 14.25C23.25 15.4922 22.2422 16.5 21 16.5H3C1.75781 16.5 0.75 15.4922 0.75 14.25ZM1.5 18.75C1.5 18.3375 1.8375 18 2.25 18H21.75C22.1625 18 22.5 18.3375 22.5 18.75V19.5C22.5 21.1547 21.1547 22.5 19.5 22.5H4.5C2.84531 22.5 1.5 21.1547 1.5 19.5V18.75Z" fill="#E9A209"/>
<path d="M43 3.04688C43 3.84375 42.2969 4.54688 41.5 4.54688H31V10.5469H38.5C39.2969 10.5469 40 11.2031 40 12C40 12.75 39.2969 13.5 38.5 13.5H31V21C31 21.7969 30.2969 22.5 29.5 22.5C28.6562 22.5 28 21.7969 28 21V3C28 2.20312 28.6562 1.54688 29.5 1.54688H41.5C42.2969 1.54688 43 2.20312 43 3.04688ZM53.5 1.54688C59.2656 1.54688 64 6.23438 64 12.0469C64 17.8125 59.2656 22.5469 53.5 22.5469C47.6875 22.5469 43 17.8125 43 12.0469C43 6.23438 47.6875 1.54688 53.5 1.54688ZM53.5 19.5C57.625 19.5 61 16.125 61 12C61 7.92188 57.625 4.54688 53.5 4.54688C49.3281 4.54688 46 7.875 46 12C46 16.1719 49.3281 19.5 53.5 19.5ZM74.5 1.54688C80.2656 1.54688 85 6.23438 85 12.0469C85 17.8125 80.2656 22.5469 74.5 22.5469C68.6875 22.5469 64 17.8125 64 12.0469C64 6.23438 68.6875 1.54688 74.5 1.54688ZM74.5 19.5C78.625 19.5 82 16.125 82 12C82 7.92188 78.625 4.54688 74.5 4.54688C70.3281 4.54688 67 7.875 67 12C67 16.1719 70.3281 19.5 74.5 19.5ZM92.5 1.54688C98.2656 1.54688 103 6.23438 103 12.0469C103 17.8125 98.2656 22.5469 92.5 22.5469H86.5C85.6562 22.5469 85 21.8438 85 21.0469V3.04688C85 2.20312 85.6562 1.54688 86.5 1.54688H92.5ZM92.5 19.5C96.625 19.5 100 16.0781 100 12C100 7.875 96.625 4.5 92.5 4.5H88V19.5H92.5Z" fill="#E9A209"/>
</svg>
