<?xml version="1.0" standalone="no"?>
<svg xmlns:xlink="http://www.w3.org/1999/xlink" id="wave" style="transform:rotate(180deg); transition: 0.3s" viewBox="0 0 1440 100" version="1.1" xmlns="http://www.w3.org/2000/svg"><defs><linearGradient id="sw-gradient-0" x1="0" x2="0" y1="1" y2="0"><stop stop-color="rgba(255, 249, 234, 1)" offset="0%"/><stop stop-color="rgba(255, 179, 11, 1)" offset="100%"/></linearGradient></defs><path style="transform:translate(0, 0px); opacity:1" fill="url(#sw-gradient-0)" d="M0,80L26.7,75C53.3,70,107,60,160,48.3C213.3,37,267,23,320,15C373.3,7,427,3,480,16.7C533.3,30,587,60,640,65C693.3,70,747,50,800,41.7C853.3,33,907,37,960,31.7C1013.3,27,1067,13,1120,8.3C1173.3,3,1227,7,1280,13.3C1333.3,20,1387,30,1440,36.7C1493.3,43,1547,47,1600,51.7C1653.3,57,1707,63,1760,61.7C1813.3,60,1867,50,1920,53.3C1973.3,57,2027,73,2080,78.3C2133.3,83,2187,77,2240,76.7C2293.3,77,2347,83,2400,71.7C2453.3,60,2507,30,2560,28.3C2613.3,27,2667,53,2720,68.3C2773.3,83,2827,87,2880,73.3C2933.3,60,2987,30,3040,26.7C3093.3,23,3147,47,3200,50C3253.3,53,3307,37,3360,26.7C3413.3,17,3467,13,3520,18.3C3573.3,23,3627,37,3680,38.3C3733.3,40,3787,30,3813,25L3840,20L3840,100L3813.3,100C3786.7,100,3733,100,3680,100C3626.7,100,3573,100,3520,100C3466.7,100,3413,100,3360,100C3306.7,100,3253,100,3200,100C3146.7,100,3093,100,3040,100C2986.7,100,2933,100,2880,100C2826.7,100,2773,100,2720,100C2666.7,100,2613,100,2560,100C2506.7,100,2453,100,2400,100C2346.7,100,2293,100,2240,100C2186.7,100,2133,100,2080,100C2026.7,100,1973,100,1920,100C1866.7,100,1813,100,1760,100C1706.7,100,1653,100,1600,100C1546.7,100,1493,100,1440,100C1386.7,100,1333,100,1280,100C1226.7,100,1173,100,1120,100C1066.7,100,1013,100,960,100C906.7,100,853,100,800,100C746.7,100,693,100,640,100C586.7,100,533,100,480,100C426.7,100,373,100,320,100C266.7,100,213,100,160,100C106.7,100,53,100,27,100L0,100Z"/></svg>